<svg xmlns="http://www.w3.org/2000/svg" width="24" height="24" viewBox="0 0 24 24">
    <g fill="none" fill-rule="evenodd">
        <circle cx="12" cy="12" r="11" stroke="#9E9E9E" stroke-width="2"/>
        <path fill="#9E9E9E" fill-rule="nonzero" d="M12.091 7.55c.308 0 .567-.105.777-.315.21-.21.315-.464.315-.763 0-.308-.105-.567-.315-.777-.21-.21-.469-.315-.777-.315-.299 0-.553.105-.763.315-.21.21-.315.469-.315.777 0 .299.105.553.315.763.21.21.464.315.763.315zM14.289 17v-.56c-.27-.01-.485-.035-.644-.077-.159-.042-.28-.124-.364-.245-.084-.121-.14-.294-.168-.518-.028-.224-.042-.523-.042-.896V9.44l-3.248.532v.476c.43 0 .726.037.889.112.163.075.268.229.315.462.028.13.051.371.07.721.019.35.028.796.028 1.337v1.722c0 .327-.016.595-.049.805-.033.21-.093.373-.182.49-.089.117-.215.2-.378.252-.163.051-.376.082-.637.091V17h4.41z"/>
    </g>
</svg>
